<?xml version="1.0" standalone="no"?>
<!DOCTYPE svg PUBLIC "-//W3C//DTD SVG 20010904//EN"
 "http://www.w3.org/TR/2001/REC-SVG-20010904/DTD/svg10.dtd">
<svg version="1.0" xmlns="http://www.w3.org/2000/svg"
 width="260.000000pt" height="260.000000pt" viewBox="0 0 260.000000 260.000000"
 preserveAspectRatio="xMidYMid meet">
<metadata>
Created by potrace 1.11, written by Peter Selinger 2001-2013
</metadata>
<g transform="translate(0.000000,260.000000) scale(0.100000,-0.100000)"
fill="#000000" stroke="none">
<path d="M803 1896 c-99 -25 -170 -90 -193 -176 -16 -59 -16 -216 0 -265 29
-93 53 -117 279 -277 103 -74 114 -91 115 -182 1 -59 -3 -78 -18 -95 -22 -24
-44 -27 -71 -7 -19 13 -23 49 -25 184 l0 52 -144 0 -144 0 4 -102 c5 -123 24
-196 64 -241 64 -74 197 -115 334 -104 132 11 223 59 265 142 24 46 26 59 26
185 0 102 -5 147 -18 185 -18 53 -68 114 -127 157 -81 58 -140 98 -145 98 -15
0 -92 65 -104 87 -14 28 -18 105 -7 140 8 25 37 37 65 28 21 -7 31 -44 31
-121 l0 -54 144 0 143 0 -3 85 c-5 119 -28 181 -82 222 -24 18 -66 40 -95 49
-68 22 -227 27 -294 10z"/>
<path d="M1571 1679 c-54 -11 -123 -43 -146 -69 -56 -62 -71 -261 -27 -347 22
-43 89 -99 172 -146 173 -96 173 -97 174 -176 1 -65 -14 -91 -49 -91 -42 0
-52 25 -54 138 l-1 52 -130 0 -130 0 0 -68 c0 -78 20 -157 50 -195 23 -29 110
-75 162 -85 18 -4 78 -7 133 -6 116 1 186 24 234 79 44 50 56 97 56 215 -1
162 -22 191 -217 295 -131 70 -158 98 -158 164 0 53 17 81 49 81 31 0 44 -27
45 -93 l1 -62 133 -3 134 -3 -6 85 c-6 97 -20 131 -73 175 -71 59 -228 85
-352 60z"/>
</g>
</svg>
